<mxfile host="app.diagrams.net" agent="Mozilla/5.0 (Windows NT 10.0; Win64; x64) AppleWebKit/537.36 (KHTML, like Gecko) Chrome/128.0.0.0 Safari/537.36 OPR/114.0.0.0" version="26.0.6">
  <diagram name="PÃ¡gina-1" id="5ThhOrdRXqjYKLAJzV4n">
    <mxGraphModel dx="656" dy="385" grid="1" gridSize="10" guides="1" tooltips="1" connect="1" arrows="1" fold="1" page="1" pageScale="1" pageWidth="827" pageHeight="1169" background="none" math="0" shadow="0">
      <root>
        <mxCell id="0" />
        <mxCell id="1" parent="0" />
        <mxCell id="qsqK5V_Lun_oDQ4iL3AC-1" value="Inicio de sesion" style="rounded=0;whiteSpace=wrap;html=1;" vertex="1" parent="1">
          <mxGeometry x="40" y="40" width="120" height="60" as="geometry" />
        </mxCell>
        <mxCell id="qsqK5V_Lun_oDQ4iL3AC-2" value="Registros" style="rounded=0;whiteSpace=wrap;html=1;" vertex="1" parent="1">
          <mxGeometry x="320" y="40" width="120" height="60" as="geometry" />
        </mxCell>
        <mxCell id="qsqK5V_Lun_oDQ4iL3AC-3" value="" style="rounded=0;whiteSpace=wrap;html=1;" vertex="1" parent="1">
          <mxGeometry x="580" y="30" width="120" height="60" as="geometry" />
        </mxCell>
        <mxCell id="qsqK5V_Lun_oDQ4iL3AC-4" value="" style="rounded=0;whiteSpace=wrap;html=1;" vertex="1" parent="1">
          <mxGeometry x="920" y="30" width="120" height="60" as="geometry" />
        </mxCell>
        <mxCell id="qsqK5V_Lun_oDQ4iL3AC-5" value="usuario" style="ellipse;whiteSpace=wrap;html=1;" vertex="1" parent="1">
          <mxGeometry x="20" y="160" width="120" height="80" as="geometry" />
        </mxCell>
        <mxCell id="qsqK5V_Lun_oDQ4iL3AC-6" value="password" style="ellipse;whiteSpace=wrap;html=1;" vertex="1" parent="1">
          <mxGeometry x="150" y="170" width="120" height="80" as="geometry" />
        </mxCell>
        <mxCell id="qsqK5V_Lun_oDQ4iL3AC-7" value="" style="ellipse;whiteSpace=wrap;html=1;" vertex="1" parent="1">
          <mxGeometry x="294" y="120" width="120" height="80" as="geometry" />
        </mxCell>
      </root>
    </mxGraphModel>
  </diagram>
</mxfile>
